<?xml version="1.0" encoding="UTF-8"?>
<svg version="1.1" xmlns="http://www.w3.org/2000/svg" width="3488" height="2912">
<path d="M0 0 C2.88213645 3.45516509 5.26424113 6.95238033 7.51171875 10.84765625 C7.83681931 11.40757263 8.16191986 11.96748901 8.49687195 12.54437256 C9.19727166 13.75094097 9.89599827 14.95848188 10.59320068 16.16690063 C12.48572204 19.44521967 14.39292187 22.71496493 16.30078125 25.984375 C16.69269653 26.65624344 17.08461182 27.32811188 17.48840332 28.02033997 C21.37331145 34.66542234 25.36346998 41.24315305 29.375 47.8125 C35.49090448 57.83180993 41.52198348 67.89782071 47.5 78 C53.44031075 88.03709232 59.4283432 98.0418 65.5 108 C71.98326787 118.63328845 78.36477342 129.3236673 84.70800781 140.04101562 C90.24705071 149.39684031 95.83996139 158.71690012 101.5 168 C107.98326787 178.63328845 114.36477342 189.3236673 120.70800781 200.04101562 C126.24705071 209.39684031 131.83996139 218.71690012 137.5 228 C143.98326787 238.63328845 150.36477342 249.3236673 156.70800781 260.04101562 C162.92475302 270.54152616 169.22428708 280.98789112 175.57714844 291.40649414 C181.03941578 300.37496386 186.40397336 309.39936044 191.75 318.4375 C196.91952803 327.17675781 202.11676372 335.88993966 207.5 344.5 C213.31002009 353.79266727 218.90037584 363.20890586 224.47949219 372.64111328 C230.09373784 382.13101385 235.75962741 391.58586991 241.5 401 C247.98360073 411.63308238 254.36477646 422.32367244 260.70800781 433.04101562 C266.24705071 442.39684031 271.83996139 451.71690012 277.5 461 C283.98326787 471.63328845 290.36477342 482.3236673 296.70800781 493.04101562 C302.24705071 502.39684031 307.83996139 511.71690012 313.5 521 C319.98326787 531.63328845 326.36477342 542.3236673 332.70800781 553.04101562 C338.24705071 562.39684031 343.83996139 571.71690012 349.5 581 C355.98326787 591.63328845 362.36477342 602.3236673 368.70800781 613.04101562 C374.24705071 622.39684031 379.83996139 631.71690012 385.5 641 C391.98326787 651.63328845 398.36477342 662.3236673 404.70800781 673.04101562 C410.24705071 682.39684031 415.83996139 691.71690012 421.5 701 C427.98326787 711.63328845 434.36477342 722.3236673 440.70800781 733.04101562 C446.24705071 742.39684031 451.83996139 751.71690012 457.5 761 C463.98326787 771.63328845 470.36477342 782.3236673 476.70800781 793.04101562 C482.24705071 802.39684031 487.83996139 811.71690012 493.5 821 C499.98326787 831.63328845 506.36477342 842.3236673 512.70800781 853.04101562 C518.24705071 862.39684031 523.83996139 871.71690012 529.5 881 C535.98326787 891.63328845 542.36477342 902.3236673 548.70800781 913.04101562 C554.24705071 922.39684031 559.83996139 931.71690012 565.5 941 C571.98326787 951.63328845 578.36477342 962.3236673 584.70800781 973.04101562 C590.24705071 982.39684031 595.83996139 991.71690012 601.5 1001 C607.98326787 1011.63328845 614.36477342 1022.3236673 620.70800781 1033.04101562 C626.24705071 1042.39684031 631.83996139 1051.71690012 637.5 1061 C643.98326787 1071.63328845 650.36477342 1082.3236673 656.70800781 1093.04101562 C662.24705071 1102.39684031 667.83996139 1111.71690012 673.5 1121 C679.98326787 1131.63328845 686.36477342 1142.3236673 692.70800781 1153.04101562 C698.24705071 1162.39684031 703.83996139 1171.71690012 709.5 1181 C715.98326787 1191.63328845 722.36477342 1202.3236673 728.70800781 1213.04101562 C734.24708006 1222.39688988 739.84133688 1231.71599659 745.5 1241 C751.46174116 1250.79200532 757.38998615 1260.6033222 763.26318359 1270.44873047 C764.125086 1271.89236032 764.98851552 1273.33507958 765.85351562 1274.77685547 C767.05378447 1276.77839244 768.24835384 1278.78321803 769.44140625 1280.7890625 C769.98378685 1281.69007187 769.98378685 1281.69007187 770.53712463 1282.60928345 C773 1286.77134246 773 1286.77134246 773 1289 C726.85818267 1289.2059089 680.71641389 1289.36454061 634.57422786 1289.45958797 C629.12923709 1289.4708446 623.68424723 1289.48249347 618.23925781 1289.49438477 C617.15523851 1289.49674556 616.07121921 1289.49910635 614.95435084 1289.50153869 C597.39194456 1289.54072221 579.82980288 1289.61169514 562.26755367 1289.69437516 C544.25288352 1289.77847905 526.23835213 1289.8285163 508.2234937 1289.84679645 C497.10328774 1289.85915818 485.98382958 1289.8982281 474.86385377 1289.9712482 C467.24294374 1290.01874838 459.62242143 1290.0332178 452.00137405 1290.0215124 C447.60123854 1290.01573588 443.20241141 1290.02471304 438.8025074 1290.07284927 C434.77497655 1290.11659064 430.74963564 1290.11890328 426.72200479 1290.08809005 C425.26425934 1290.08428122 423.80637829 1290.09575486 422.34890054 1290.12394864 C411.45426543 1290.32246285 411.45426543 1290.32246285 407.8529675 1287.04755676 C406.29702274 1284.75333999 405.12623824 1282.527773 404 1280 C403.29735949 1278.81878628 402.57991548 1277.64618785 401.84448242 1276.48510742 C401.18810791 1275.36982666 400.5317334 1274.2545459 399.85546875 1273.10546875 C399.48871536 1272.48448807 399.12196198 1271.86350739 398.74409485 1271.22370911 C397.96201484 1269.89932725 397.18096124 1268.5743388 396.40087891 1267.2487793 C394.29808637 1263.67657056 392.18644962 1260.10960253 390.07421875 1256.54296875 C389.64587738 1255.81955292 389.21753601 1255.09613708 388.7762146 1254.35079956 C384.73532272 1247.53577861 380.62574716 1240.76388033 376.5 1234 C370.01600471 1223.3671619 363.63521992 1212.67632146 357.29199219 1201.95898438 C351.75294929 1192.60315969 346.16003861 1183.28309988 340.5 1174 C334.01673213 1163.36671155 327.63522658 1152.6763327 321.29199219 1141.95898438 C315.75294929 1132.60315969 310.16003861 1123.28309988 304.5 1114 C298.01673213 1103.36671155 291.63522658 1092.6763327 285.29199219 1081.95898438 C279.75294929 1072.60315969 274.16003861 1063.28309988 268.5 1054 C262.01673213 1043.36671155 255.63522658 1032.6763327 249.29199219 1021.95898438 C243.75294929 1012.60315969 238.16003861 1003.28309988 232.5 994 C226.01673213 983.36671155 219.63522658 972.6763327 213.29199219 961.95898438 C207.75294929 952.60315969 202.16003861 943.28309988 196.5 934 C190.01673213 923.36671155 183.63522658 912.6763327 177.29199219 901.95898438 C171.75294929 892.60315969 166.16003861 883.28309988 160.5 874 C154.01673213 863.36671155 147.63522658 852.6763327 141.29199219 841.95898438 C135.75294929 832.60315969 130.16003861 823.28309988 124.5 814 C118.01673213 803.36671155 111.63522658 792.6763327 105.29199219 781.95898438 C99.75294929 772.60315969 94.16003861 763.28309988 88.5 754 C82.01673213 743.36671155 75.63522658 732.6763327 69.29199219 721.95898438 C63.75294929 712.60315969 58.16003861 703.28309988 52.5 694 C46.42833766 684.04179092 40.44092821 674.03673354 34.5 664 C28.23975463 653.42633683 21.93713225 642.88014803 15.5625 632.375 C15.20510742 631.78509277 14.84771484 631.19518555 14.47949219 630.58740234 C13.46837308 628.91929096 12.45493541 627.25258565 11.44140625 625.5859375 C10.87107666 624.6479834 10.30074707 623.7100293 9.71313477 622.74365234 C7.86651243 619.78621443 5.94723892 616.89196008 4 614 C-3.24832154 625.14358094 -10.40198249 636.34276678 -17.48388672 647.59277344 C-19.98526715 651.56436941 -22.49289459 655.53201649 -25 659.5 C-27.97786343 664.21402403 -30.95515838 668.92840241 -33.9296875 673.64453125 C-39.85953993 683.04397818 -45.813845 692.4274846 -51.78417969 701.80126953 C-57.05446637 710.0787882 -62.29733903 718.37340293 -67.53222656 726.67333984 C-70.01983357 730.61660245 -72.51006414 734.55820768 -75 738.5 C-76.00001224 740.0833256 -77.00001225 741.66665893 -78 743.25 C-80 746.41666667 -82 749.58333333 -84 752.75 C-84.49483887 753.5335083 -84.98967773 754.3170166 -85.49951172 755.12426758 C-86.50109035 756.71007325 -87.50271808 758.29584791 -88.50439453 759.8815918 C-90.98064184 763.80184757 -93.45607701 767.72261107 -95.9296875 771.64453125 C-101.85953993 781.04397818 -107.813845 790.4274846 -113.78417969 799.80126953 C-117.57571967 805.75626682 -121.35658428 811.7178431 -125.125 817.6875 C-125.84937256 818.83484619 -125.84937256 818.83484619 -126.58837891 820.00537109 C-129.12943837 824.03176361 -131.66738365 828.06010001 -134.203125 832.08984375 C-134.99952393 833.35405151 -134.99952393 833.35405151 -135.81201172 834.64379883 C-136.81464462 836.23545116 -137.81635483 837.82768531 -138.81689453 839.4206543 C-139.5069458 840.51567261 -139.5069458 840.51567261 -140.2109375 841.6328125 C-140.65920898 842.34856445 -141.10748047 843.06431641 -141.56933594 843.80175781 C-142.57950475 845.35390116 -143.63448039 846.87731956 -144.71972656 848.37792969 C-145.27885742 849.15813477 -145.83798828 849.93833984 -146.4140625 850.7421875 C-146.93178223 851.43940918 -147.44950195 852.13663086 -147.98291016 852.85498047 C-149.34976119 855.73763846 -148.99819828 856.99269465 -148 860 C-146.99834001 861.98677658 -145.9154575 863.93345217 -144.78125 865.84765625 C-144.4519046 866.40757263 -144.1225592 866.96748901 -143.78323364 867.54437256 C-142.69596863 869.38808237 -141.59821261 871.22529353 -140.5 873.0625 C-139.72789599 874.36585901 -138.95625651 875.66949331 -138.18505859 876.97338867 C-132.37149402 886.78211976 -126.45815259 896.53050878 -120.51953125 906.26391602 C-115.11018513 915.13522815 -109.79149173 924.05797082 -104.5 933 C-98.55968925 943.03709232 -92.5716568 953.0418 -86.5 963 C-80.01673213 973.63328845 -73.63522658 984.3236673 -67.29199219 995.04101562 C-61.75294929 1004.39684031 -56.16003861 1013.71690012 -50.5 1023 C-44.01673213 1033.63328845 -37.63522658 1044.3236673 -31.29199219 1055.04101562 C-25.75294929 1064.39684031 -20.16003861 1073.71690012 -14.5 1083 C-8.01673213 1093.63328845 -1.63522658 1104.3236673 4.70800781 1115.04101562 C10.24705071 1124.39684031 15.83996139 1133.71690012 21.5 1143 C27.98326787 1153.63328845 34.36477342 1164.3236673 40.70800781 1175.04101562 C46.24705071 1184.39684031 51.83996139 1193.71690012 57.5 1203 C63.98326787 1213.63328845 70.36477342 1224.3236673 76.70800781 1235.04101562 C82.24705071 1244.39684031 87.83996139 1253.71690012 93.5 1263 C99.98326787 1273.63328845 106.36477342 1284.3236673 112.70800781 1295.04101562 C118.24705071 1304.39684031 123.83996139 1313.71690012 129.5 1323 C135.98326787 1333.63328845 142.36477342 1344.3236673 148.70800781 1355.04101562 C154.92475302 1365.54152616 161.22428708 1375.98789112 167.57714844 1386.40649414 C173.45125631 1396.05116278 179.21351699 1405.76041015 184.95840454 1415.48248291 C190.62407815 1425.06738548 196.37761946 1434.58446194 202.34472656 1443.98608398 C202.83295898 1444.76153564 203.32119141 1445.5369873 203.82421875 1446.3359375 C204.24791748 1447.00157715 204.67161621 1447.6672168 205.1081543 1448.35302734 C206 1450 206 1450 206 1452 C206.57551936 1451.99563254 207.15103871 1451.99126509 207.74399805 1451.98676528 C270.41660191 1451.51215605 333.08940774 1451.07241969 395.76332092 1450.81439209 C397.16812827 1450.80859369 397.16812827 1450.80859369 398.60131557 1450.80267816 C418.95594837 1450.71887222 439.31060049 1450.64130778 459.66528141 1450.57017078 C469.6475454 1450.53524606 479.62980416 1450.49894245 489.61206055 1450.46191406 C490.60540288 1450.45825281 491.59874521 1450.45459156 492.62218882 1450.45081935 C524.80630542 1450.3315493 556.98904348 1450.12127212 589.17232529 1449.86367782 C622.25135441 1449.59939555 655.32962102 1449.42716962 688.40968803 1449.37038028 C693.0844174 1449.36231222 697.75914418 1449.3531944 702.43387032 1449.34343719 C703.35390234 1449.34154935 704.27393437 1449.33966151 705.22184616 1449.33771645 C720.01882065 1449.30465636 734.81343396 1449.17487687 749.60944633 1449.00870305 C764.49330063 1448.84361483 779.3748202 1448.78095298 794.25955754 1448.82196143 C802.32274366 1448.84135782 810.37956313 1448.81538021 818.44148254 1448.6622467 C868.76887195 1447.74175944 868.76887195 1447.74175944 877.92721478 1456.38799198 C883.16239435 1462.36195203 885.84962151 1469.11637579 887.99175465 1476.70428991 C889.39319426 1481.28525691 891.68686395 1484.96988657 894.32421875 1488.92578125 C895.06922713 1490.16920779 895.80814284 1491.41633096 896.53759766 1492.66894531 C904.32429659 1505.86802801 912.2149409 1518.99892501 920.21044922 1532.07275391 C923.5427945 1537.5236161 926.86801838 1542.9787969 930.1875 1548.4375 C930.7168515 1549.30791931 930.7168515 1549.30791931 931.25689697 1550.19592285 C937.47904549 1560.43423998 943.60408025 1570.72860862 949.70663452 1581.0385437 C955.24612431 1590.39520095 960.83946982 1599.71609389 966.5 1609 C972.98326787 1619.63328845 979.36477342 1630.3236673 985.70800781 1641.04101562 C991.24705071 1650.39684031 996.83996139 1659.71690012 1002.5 1669 C1008.98326787 1679.63328845 1015.36477342 1690.3236673 1021.70800781 1701.04101562 C1027.24705071 1710.39684031 1032.83996139 1719.71690012 1038.5 1729 C1044.98326787 1739.63328845 1051.36477342 1750.3236673 1057.70800781 1761.04101562 C1063.24705071 1770.39684031 1068.83996139 1779.71690012 1074.5 1789 C1080.98326787 1799.63328845 1087.36477342 1810.3236673 1093.70800781 1821.04101562 C1099.24705071 1830.39684031 1104.83996139 1839.71690012 1110.5 1849 C1116.98326787 1859.63328845 1123.36477342 1870.3236673 1129.70800781 1881.04101562 C1135.24705071 1890.39684031 1140.83996139 1899.71690012 1146.5 1909 C1152.98326787 1919.63328845 1159.36477342 1930.3236673 1165.70800781 1941.04101562 C1171.24705071 1950.39684031 1176.83996139 1959.71690012 1182.5 1969 C1188.98326787 1979.63328845 1195.36477342 1990.3236673 1201.70800781 2001.04101562 C1207.24705071 2010.39684031 1212.83996139 2019.71690012 1218.5 2029 C1224.98326787 2039.63328845 1231.36477342 2050.3236673 1237.70800781 2061.04101562 C1243.24705071 2070.39684031 1248.83996139 2079.71690012 1254.5 2089 C1260.98326787 2099.63328845 1267.36477342 2110.3236673 1273.70800781 2121.04101562 C1279.24705071 2130.39684031 1284.83996139 2139.71690012 1290.5 2149 C1296.98326787 2159.63328845 1303.36477342 2170.3236673 1309.70800781 2181.04101562 C1315.24705071 2190.39684031 1320.83996139 2199.71690012 1326.5 2209 C1332.98326787 2219.63328845 1339.36477342 2230.3236673 1345.70800781 2241.04101562 C1351.24705071 2250.39684031 1356.83996139 2259.71690012 1362.5 2269 C1368.98326787 2279.63328845 1375.36477342 2290.3236673 1381.70800781 2301.04101562 C1387.24705071 2310.39684031 1392.83996139 2319.71690012 1398.5 2329 C1404.98326787 2339.63328845 1411.36477342 2350.3236673 1417.70800781 2361.04101562 C1423.24705071 2370.39684031 1428.83996139 2379.71690012 1434.5 2389 C1440.98326787 2399.63328845 1447.36477342 2410.3236673 1453.70800781 2421.04101562 C1459.24705071 2430.39684031 1464.83996139 2439.71690012 1470.5 2449 C1476.98326787 2459.63328845 1483.36477342 2470.3236673 1489.70800781 2481.04101562 C1495.24705071 2490.39684031 1500.83996139 2499.71690012 1506.5 2509 C1512.98326787 2519.63328845 1519.36477342 2530.3236673 1525.70800781 2541.04101562 C1531.24705071 2550.39684031 1536.83996139 2559.71690012 1542.5 2569 C1548.98326787 2579.63328845 1555.36477342 2590.3236673 1561.70800781 2601.04101562 C1567.24705071 2610.39684031 1572.83996139 2619.71690012 1578.5 2629 C1584.98326787 2639.63328845 1591.36477342 2650.3236673 1597.70800781 2661.04101562 C1603.247052 2670.39684248 1608.84009387 2679.71681779 1614.5 2689 C1621.49382043 2700.47450666 1628.38088862 2712.00965759 1635.22387695 2723.57470703 C1638.74847515 2729.53028382 1642.27957561 2735.4804753 1645.8671875 2741.3984375 C1646.43590576 2742.33751953 1647.00462402 2743.27660156 1647.59057617 2744.24414062 C1648.62339965 2745.94567033 1649.65978521 2747.64504515 1650.70043945 2749.34179688 C1654 2754.7804615 1654 2754.7804615 1654 2757 C1567.00372711 2757.44183784 1480.00716977 2757.87772562 1360.41477966 2758.22795105 C1358.95187768 2758.23199512 1357.4889757 2758.23603921 1356.02607372 2758.24008334 C1325.31811629 2758.32484462 1294.61014587 2758.403629 1263.90215562 2758.47551067 C1248.47608794 2758.51162659 1233.05002319 2758.54889079 1217.6239609 2758.58724081 C1215.29702472 2758.59301903 1212.97008846 2758.59876446 1210.64315219 2758.60450853 C1174.81942385 2758.69322872 1138.99598132 2758.80654691 1103.17260742 2758.99127197 C1102.40260844 2758.99524204 1101.63260946 2758.9992121 1100.83927717 2759.00330247 C1088.42492835 2759.06745977 1076.01059055 2759.133685 1063.59625409 2759.20018477 C1027.83095029 2759.39173692 992.06586681 2759.56794965 956.30010128 2759.64305401 C955.19642283 2759.64538278 955.19642283 2759.64538278 954.07044785 2759.64775861 C937.91656551 2759.68156899 921.76268045 2759.70751826 905.60877363 2759.7260285 C899.10858062 2759.73361533 892.60838921 2759.74233334 886.10819817 2759.75144005 C885.39678905 2759.75240944 884.68537994 2759.75337882 883.95241298 2759.75437759 C861.0457196 2759.78615335 838.14066161 2759.90993708 815.23462794 2760.08218405 C791.50949635 2760.26015617 767.78672118 2760.33538395 744.06080825 2760.29153994 C730.38252248 2760.26947167 716.7101585 2760.32834242 703.03294188 2760.50312875 C693.89403415 2760.6119435 684.75899951 2760.61522083 675.61982346 2760.53312259 C670.41059802 2760.48933771 665.21254983 2760.49101308 660.00452895 2760.62161229 C630.67537557 2761.31457478 630.67537557 2761.31457478 623.30960164 2755.71491322 C617.06574248 2749.64326367 613.47546939 2741.68186504 610.35368467 2733.67887894 C607.60558966 2726.65843844 603.68203617 2720.52477388 599.625 2714.1875 C598.83067689 2712.89338976 598.03951866 2711.59731916 597.25439453 2710.29760742 C596.63677246 2709.28545166 596.01915039 2708.2732959 595.3828125 2707.23046875 C590.69135407 2699.524829 586.0942856 2691.76382881 581.5 2684 C575.55968925 2673.96290768 569.5716568 2663.9582 563.5 2654 C557.01673213 2643.36671155 550.63522658 2632.6763327 544.29199219 2621.95898438 C538.75294929 2612.60315969 533.16003861 2603.28309988 527.5 2594 C521.01673213 2583.36671155 514.63522658 2572.6763327 508.29199219 2561.95898438 C502.75294929 2552.60315969 497.16003861 2543.28309988 491.5 2534 C485.01673213 2523.36671155 478.63522658 2512.6763327 472.29199219 2501.95898438 C466.75294929 2492.60315969 461.16003861 2483.28309988 455.5 2474 C449.01673213 2463.36671155 442.63522658 2452.6763327 436.29199219 2441.95898438 C430.75294929 2432.60315969 425.16003861 2423.28309988 419.5 2414 C413.01673213 2403.36671155 406.63522658 2392.6763327 400.29199219 2381.95898438 C394.75294929 2372.60315969 389.16003861 2363.28309988 383.5 2354 C377.01673213 2343.36671155 370.63522658 2332.6763327 364.29199219 2321.95898438 C358.75294929 2312.60315969 353.16003861 2303.28309988 347.5 2294 C341.01673213 2283.36671155 334.63522658 2272.6763327 328.29199219 2261.95898438 C322.75294929 2252.60315969 317.16003861 2243.28309988 311.5 2234 C305.01673213 2223.36671155 298.63522658 2212.6763327 292.29199219 2201.95898438 C286.75294929 2192.60315969 281.16003861 2183.28309988 275.5 2174 C269.01673213 2163.36671155 262.63522658 2152.6763327 256.29199219 2141.95898438 C250.41334826 2132.02955018 244.46698203 2122.1446798 238.45901489 2112.29302979 C232.71080217 2102.86380086 227.05881794 2093.38034325 221.4375 2083.875 C215.71194825 2074.19411539 209.92349397 2064.56151023 204 2055 C197.65795621 2044.76288033 191.47887669 2034.43832589 185.34912109 2024.07324219 C179.79233173 2014.67839654 174.18297642 2005.31904035 168.5 1996 C161.50604881 1984.52557455 154.6191101 1972.99034025 147.77612305 1961.42529297 C144.25152485 1955.46971618 140.72042439 1949.5195247 137.1328125 1943.6015625 C136.56409424 1942.66248047 135.99537598 1941.72339844 135.40942383 1940.75585938 C134.37660035 1939.05432967 133.34021479 1937.35495485 132.29956055 1935.65820312 C129 1930.2195385 129 1930.2195385 129 1928 C175.14181733 1927.7940911 221.28358611 1927.63545939 267.42577214 1927.54041203 C272.87076291 1927.5291554 278.31575277 1927.51750653 283.76074219 1927.50561523 C284.84476149 1927.50325444 285.92878079 1927.50089365 287.04564916 1927.49846131 C304.60805544 1927.45927779 322.17019712 1927.38830486 339.73244633 1927.30562484 C357.74711648 1927.22152095 375.76164787 1927.1714837 393.7765063 1927.15320355 C404.89671226 1927.14084182 416.01617042 1927.1017719 427.13614623 1927.0287518 C434.75705626 1926.98125162 442.37757857 1926.9667822 449.99862595 1926.9784876 C454.39876146 1926.98426412 458.79758859 1926.97528696 463.1974926 1926.92715073 C467.22502345 1926.88340936 471.25036436 1926.88109672 475.27799521 1926.91190995 C476.73574066 1926.91571878 478.19362171 1926.90424514 479.65109946 1926.87605136 C490.54573457 1926.67753715 490.54573457 1926.67753715 494.1470325 1929.95244324 C495.70297726 1932.24666001 496.87376176 1934.472227 498 1937 C498.70264051 1938.18121372 499.42008452 1939.35381215 500.15551758 1940.51489258 C500.81189209 1941.63017334 501.4682666 1942.7454541 502.14453125 1943.89453125 C502.51128464 1944.51551193 502.87803802 1945.13649261 503.25590515 1945.77629089 C504.03798516 1947.10067275 504.81903876 1948.4256612 505.59912109 1949.7512207 C507.70191363 1953.32342944 509.81355038 1956.89039747 511.92578125 1960.45703125 C512.35412262 1961.18044708 512.78246399 1961.90386292 513.2237854 1962.64920044 C517.26467728 1969.46422139 521.37425284 1976.23611967 525.5 1983 C531.98399529 1993.6328381 538.36478008 2004.32367854 544.70800781 2015.04101562 C550.24705071 2024.39684031 555.83996139 2033.71690012 561.5 2043 C567.98326787 2053.63328845 574.36477342 2064.3236673 580.70800781 2075.04101562 C586.24705071 2084.39684031 591.83996139 2093.71690012 597.5 2103 C603.98326787 2113.63328845 610.36477342 2124.3236673 616.70800781 2135.04101562 C622.24705071 2144.39684031 627.83996139 2153.71690012 633.5 2163 C639.57166203 2172.95820857 645.55909433 2182.96325383 651.5 2193 C657.48901107 2203.11575766 663.51565004 2213.2064085 669.625 2223.25 C669.97274475 2223.8217395 670.3204895 2224.393479 670.67877197 2224.98254395 C673.11685807 2228.98977938 675.55804334 2232.99512241 678 2237 C680.79385607 2241.58200252 683.58623693 2246.16489554 686.375 2250.75 C686.72258362 2251.32141724 687.07016724 2251.89283447 687.42828369 2252.48156738 C693.59408408 2262.62480945 699.66115381 2272.82510653 705.7074585 2283.03991699 C711.2466722 2292.39611734 716.83974769 2301.71654964 722.5 2311 C728.98326787 2321.63328845 735.36477342 2332.3236673 741.70800781 2343.04101562 C747.58665174 2352.97044982 753.53301797 2362.8553202 759.54098511 2372.70697021 C765.69639435 2382.80415444 771.7411343 2392.96428668 777.7562561 2403.14556885 C782.03135504 2410.37876132 786.33594451 2417.58973347 790.7578125 2424.734375 C791.1353215 2425.34453461 791.51283051 2425.95469421 791.90177917 2426.58334351 C793.6859848 2429.46302439 795.47764709 2432.3376221 797.27758789 2435.20751953 C797.90141357 2436.20895996 798.52523926 2437.21040039 799.16796875 2438.2421875 C799.71735107 2439.1172998 800.2667334 2439.99241211 800.83276367 2440.89404297 C802 2443 802 2443 802 2445 C901.33 2445 1000.66 2445 1103 2445 C1093.22819457 2428.33044957 1083.44398988 2411.71867269 1073.3828125 2395.23046875 C1068.69135407 2387.524829 1064.0942856 2379.76382881 1059.5 2372 C1053.55968925 2361.96290768 1047.5716568 2351.9582 1041.5 2342 C1035.01673213 2331.36671155 1028.63522658 2320.6763327 1022.29199219 2309.95898438 C1016.75294929 2300.60315969 1011.16003861 2291.28309988 1005.5 2282 C999.01673213 2271.36671155 992.63522658 2260.6763327 986.29199219 2249.95898438 C980.75294929 2240.60315969 975.16003861 2231.28309988 969.5 2222 C963.01673213 2211.36671155 956.63522658 2200.6763327 950.29199219 2189.95898438 C944.75294929 2180.60315969 939.16003861 2171.28309988 933.5 2162 C927.01673213 2151.36671155 920.63522658 2140.6763327 914.29199219 2129.95898438 C908.75294929 2120.60315969 903.16003861 2111.28309988 897.5 2102 C891.01673213 2091.36671155 884.63522658 2080.6763327 878.29199219 2069.95898438 C872.75294929 2060.60315969 867.16003861 2051.28309988 861.5 2042 C855.01673213 2031.36671155 848.63522658 2020.6763327 842.29199219 2009.95898438 C836.75294929 2000.60315969 831.16003861 1991.28309988 825.5 1982 C819.01673213 1971.36671155 812.63522658 1960.6763327 806.29199219 1949.95898438 C800.75294929 1940.60315969 795.16003861 1931.28309988 789.5 1922 C783.01673213 1911.36671155 776.63522658 1900.6763327 770.29199219 1889.95898438 C764.75294929 1880.60315969 759.16003861 1871.28309988 753.5 1862 C747.42833863 1852.04179251 741.4408244 1842.03679369 735.5 1832 C729.38751751 1821.67500351 723.23286522 1811.37782471 717 1801.125 C716.64890167 1800.54711731 716.29780334 1799.96923462 715.93606567 1799.37384033 C712.47548458 1793.67986174 709.00183649 1787.99441868 705.49609375 1782.328125 C704.71202148 1781.05751221 704.71202148 1781.05751221 703.91210938 1779.76123047 C702.96046304 1778.22126503 702.00500527 1776.68364535 701.04492188 1775.14892578 C698 1770.22197281 698 1770.22197281 698 1768 C697.31006454 1768.00186497 696.62012909 1768.00372993 695.9092865 1768.00565141 C649.47995682 1768.12370747 603.05334818 1767.94917467 556.625 1767.64868164 C555.92022588 1767.64412481 555.21545176 1767.63956797 554.48932084 1767.63487305 C535.7285438 1767.51342941 516.96780464 1767.38653065 498.2070778 1767.2575883 C487.05644327 1767.18095876 475.90580261 1767.1052813 464.75515747 1767.03021049 C463.13363136 1767.01928915 461.51210526 1767.00836721 459.89057916 1766.99744467 C459.08537079 1766.99202082 458.28016241 1766.98659698 457.45055378 1766.98100877 C456.6436822 1766.97557359 455.83681063 1766.9701384 455.0054884 1766.96453851 C454.19699433 1766.95909282 453.38850026 1766.95364713 452.55550637 1766.94803641 C429.98133479 1766.79595628 407.40717093 1766.64277009 384.83302307 1766.48720646 C383.56909945 1766.47849713 383.56909945 1766.47849713 382.27964201 1766.46961185 C378.0119048 1766.44020117 373.74416766 1766.41078073 369.47643054 1766.38135714 C368.62926994 1766.37551658 367.78210934 1766.36967602 366.90927722 1766.36365847 C365.19616421 1766.35184767 363.48305121 1766.34003625 361.76993822 1766.3282242 C334.93763279 1766.14324245 308.10530249 1765.96232547 281.27294922 1765.78442383 C250.9458993 1765.58334746 220.61887317 1765.37908615 190.29187584 1765.17022032 C187.06461977 1765.14800497 183.83736362 1765.12580127 180.61010742 1765.10360527 C179.41861056 1765.0954075 179.41861056 1765.0954075 178.20304306 1765.08704412 C166.23360149 1765.00475927 154.26414486 1764.9249858 142.29467773 1764.84651375 C128.73508486 1764.75761639 115.17551894 1764.6654407 101.61597878 1764.56882221 C94.70436689 1764.51966432 87.79275279 1764.47202538 80.88110161 1764.42870712 C74.56157558 1764.38894744 68.24209587 1764.34482496 61.92262459 1764.2971701 C59.63350163 1764.28068338 57.34436633 1764.26581582 55.05522156 1764.25270248 C51.95196103 1764.23468956 48.84879837 1764.21084749 45.74559021 1764.18551731 C44.40404669 1764.17983176 44.40404669 1764.17983176 43.03540128 1764.17403135 C38.28469291 1764.12841474 33.6669831 1763.9907624 29 1763 C27.16116692 1760.9362033 26.0508823 1759.31774745 24.75 1756.9375 C24.3485376 1756.25268555 23.9470752 1755.56787109 23.53344727 1754.86230469 C22.57751517 1753.22926119 21.63190445 1751.59015395 20.69384766 1749.94677734 C18.7385818 1746.54521221 16.73852235 1743.17131762 14.73046875 1739.80078125 C13.94692913 1738.48511396 13.16340073 1737.16943999 12.37988281 1735.85375977 C11.97983032 1735.18208771 11.57977783 1734.51041565 11.16760254 1733.81838989 C9.92372568 1731.72683878 8.68344675 1729.63319618 7.44433594 1727.53881836 C2.18809628 1718.65615056 -3.12642796 1709.81212592 -8.5 1701 C-14.9836614 1690.36695511 -21.364777 1679.67632665 -27.70800781 1668.95898438 C-33.24705071 1659.60315969 -38.83996139 1650.28309988 -44.5 1641 C-50.98326787 1630.36671155 -57.36477342 1619.6763327 -63.70800781 1608.95898438 C-69.24705071 1599.60315969 -74.83996139 1590.28309988 -80.5 1581 C-86.98326787 1570.36671155 -93.36477342 1559.6763327 -99.70800781 1548.95898438 C-105.24705071 1539.60315969 -110.83996139 1530.28309988 -116.5 1521 C-122.98326787 1510.36671155 -129.36477342 1499.6763327 -135.70800781 1488.95898438 C-141.24705071 1479.60315969 -146.83996139 1470.28309988 -152.5 1461 C-158.98326787 1450.36671155 -165.36477342 1439.6763327 -171.70800781 1428.95898438 C-177.24705071 1419.60315969 -182.83996139 1410.28309988 -188.5 1401 C-194.98326787 1390.36671155 -201.36477342 1379.6763327 -207.70800781 1368.95898438 C-213.24705071 1359.60315969 -218.83996139 1350.28309988 -224.5 1341 C-230.98326787 1330.36671155 -237.36477342 1319.6763327 -243.70800781 1308.95898438 C-249.24705071 1299.60315969 -254.83996139 1290.28309988 -260.5 1281 C-266.98326787 1270.36671155 -273.36477342 1259.6763327 -279.70800781 1248.95898438 C-285.24705071 1239.60315969 -290.83996139 1230.28309988 -296.5 1221 C-302.98326787 1210.36671155 -309.36477342 1199.6763327 -315.70800781 1188.95898438 C-321.24705071 1179.60315969 -326.83996139 1170.28309988 -332.5 1161 C-338.98326787 1150.36671155 -345.36477342 1139.6763327 -351.70800781 1128.95898438 C-357.24705071 1119.60315969 -362.83996139 1110.28309988 -368.5 1101 C-374.98326787 1090.36671155 -381.36477342 1079.6763327 -387.70800781 1068.95898438 C-393.24705071 1059.60315969 -398.83996139 1050.28309988 -404.5 1041 C-410.98326787 1030.36671155 -417.36477342 1019.6763327 -423.70800781 1008.95898438 C-429.24705024 999.60316048 -434.83990871 990.28306733 -440.5 981 C-446.63421864 970.9376343 -452.68391779 960.82833407 -458.6875 950.6875 C-465.7710723 938.72487332 -472.93892553 926.81832258 -480.19287109 914.95800781 C-482.17005 911.72165283 -484.14270018 908.48256213 -486.11328125 905.2421875 C-486.46707855 904.6604628 -486.82087585 904.0787381 -487.18539429 903.47938538 C-488.98495796 900.51908102 -490.78181272 897.55717339 -492.57421875 894.5925293 C-493.28509733 893.41711931 -493.99603482 892.24174495 -494.70703125 891.06640625 C-495.05883453 890.48475204 -495.41063782 889.90309784 -495.77310181 889.30381775 C-497.94166678 885.72545343 -500.13457718 882.16334398 -502.34700012 878.61193848 C-503.42900271 876.87234614 -504.50476055 875.12906034 -505.57836914 873.38427734 C-506.91354927 871.21721772 -508.25991165 869.05699648 -509.61889648 866.90478516 C-510.21130127 865.93718262 -510.80370605 864.96958008 -511.4140625 863.97265625 C-512.20224365 862.70820679 -512.20224365 862.70820679 -513.00634766 861.41821289 C-514.25833421 858.37130211 -514.04804364 857.10320562 -513 854 C-511.99834001 852.01322342 -510.9154575 850.06654783 -509.78125 848.15234375 C-509.2872319 847.31246918 -509.2872319 847.31246918 -508.78323364 846.45562744 C-507.69596863 844.61191763 -506.59821261 842.77470647 -505.5 840.9375 C-504.72789599 839.63414099 -503.95625651 838.33050669 -503.18505859 837.02661133 C-497.37149402 827.21788024 -491.45815259 817.46949122 -485.51953125 807.73608398 C-480.11018513 798.86477185 -474.79149173 789.94202918 -469.5 781 C-463.21976973 770.38856002 -456.877073 759.81900445 -450.45800781 749.29101562 C-444.73548064 739.90157441 -439.10060119 730.46261639 -433.5 721 C-427.21953143 710.38869902 -420.877075 699.81900773 -414.45800781 689.29101562 C-408.73548064 679.90157441 -403.10060119 670.46261639 -397.5 661 C-391.21953143 650.38869902 -384.877075 639.81900773 -378.45800781 629.29101562 C-372.73548064 619.90157441 -367.10060119 610.46261639 -361.5 601 C-355.21953143 590.38869902 -348.877075 579.81900773 -342.45800781 569.29101562 C-336.73548064 559.90157441 -331.10060119 550.46261639 -325.5 541 C-319.21953143 530.38869902 -312.877075 519.81900773 -306.45800781 509.29101562 C-300.73548064 499.90157441 -295.10060119 490.46261639 -289.5 481 C-283.21953143 470.38869902 -276.877075 459.81900773 -270.45800781 449.29101562 C-264.73548064 439.90157441 -259.10060119 430.46261639 -253.5 421 C-247.21953143 410.38869902 -240.877075 399.81900773 -234.45800781 389.29101562 C-228.73548064 379.90157441 -223.10060119 370.46261639 -217.5 361 C-211.21953143 350.38869902 -204.877075 339.81900773 -198.45800781 329.29101562 C-192.73548064 319.90157441 -187.10060119 310.46261639 -181.5 301 C-175.21953143 290.38869902 -168.877075 279.81900773 -162.45800781 269.29101562 C-156.7354775 259.90156926 -151.10094959 250.46241406 -145.5 241 C-139.51098893 230.88424234 -133.48434996 220.7935915 -127.375 210.75 C-126.85338287 209.89239075 -126.85338287 209.89239075 -126.32122803 209.01745605 C-123.5364429 204.44038652 -120.74745795 199.86588018 -117.95825195 195.29150391 C-115.51182882 191.27888859 -113.06714645 187.26521976 -110.625 183.25 C-110.27741638 182.67858276 -109.92983276 182.10716553 -109.57171631 181.51843262 C-103.40591592 171.37519055 -97.33884619 161.17489347 -91.2925415 150.96008301 C-85.41334244 141.02961863 -79.46565015 131.14422471 -73.45800781 121.29101562 C-67.73548064 111.90157441 -62.10060119 102.46261639 -56.5 93 C-49.88404915 81.82187771 -43.19201514 70.69444011 -36.42944336 59.60449219 C-30.90161162 50.52875174 -25.47356689 41.39573325 -20.0625 32.25 C-2.39377462 2.39377462 -2.39377462 2.39377462 0 0 Z " fill="#3B89C9" transform="translate(1768,77)"/>
<path d="M0 0 C3.21693815 2.96418818 5.33784972 5.96277592 7.51171875 9.75 C7.83690994 10.31146729 8.16210114 10.87293457 8.49714661 11.45141602 C9.19862747 12.66353057 9.89740988 13.87721004 10.59375 15.09228516 C12.47981399 18.38195123 14.38707241 21.65929689 16.29296875 24.9375 C16.68447113 25.61184082 17.07597351 26.28618164 17.4793396 26.98095703 C21.39486378 33.71015035 25.43762136 40.35880776 29.5 47 C35.26887381 56.44194016 40.92771562 65.94076056 46.5 75.5 C52.15695113 85.20394481 57.90182888 94.84753939 63.75 104.4375 C70.31275573 115.20114362 76.77017016 126.02149146 83.1640625 136.88623047 C86.88828023 143.20254336 90.63182553 149.50740858 94.375 155.8125 C94.7837738 156.50114136 95.19254761 157.18978271 95.6137085 157.89929199 C101.48090244 167.78146061 107.3774563 177.64548862 113.30078125 187.49414062 C116.73611776 193.21115585 120.15483768 198.93761638 123.5546875 204.67578125 C123.94731781 205.33844498 124.33994812 206.0011087 124.74447632 206.68385315 C125.54893803 208.04177184 126.35337096 209.39970758 127.15777588 210.75765991 C127.55945984 211.43575714 127.9611438 212.11385437 128.375 212.8125 C128.77652283 213.49035553 129.17804565 214.16821106 129.59173584 214.86660767 C135.55154629 224.9235822 141.58720597 234.93113971 147.6762085 244.91030884 C153.41346917 254.31936965 159.01308713 263.80305224 164.56304932 273.32357788 C169.78285273 282.27359009 175.09983604 291.15772785 180.5 300 C186.63380175 310.04353659 192.63599795 320.15564354 198.5625 330.32275391 C203.78249662 339.27303304 209.09966525 348.15744821 214.5 357 C220.63380175 367.04353659 226.63599795 377.15564354 232.5625 387.32275391 C237.78249662 396.27303304 243.09966525 405.15744821 248.5 414 C254.63380175 424.04353659 260.63599795 434.15564354 266.5625 444.32275391 C271.78249662 453.27303304 277.09966525 462.15744821 282.5 471 C288.63380175 481.04353659 294.63599795 491.15564354 300.5625 501.32275391 C305.78249662 510.27303304 311.09966525 519.15744821 316.5 528 C322.63380175 538.04353659 328.63599795 548.15564354 334.5625 558.32275391 C339.78249662 567.27303304 345.09966525 576.15744821 350.5 585 C356.26707995 594.44306335 361.92769052 603.9407175 367.5 613.5 C373.15695113 623.20394481 378.90182888 632.84753939 384.75 642.4375 C391.31275573 653.20114362 397.77017016 664.02149146 404.1640625 674.88623047 C407.88828023 681.20254336 411.63182553 687.50740858 415.375 693.8125 C415.7837738 694.50114136 416.19254761 695.18978271 416.6137085 695.89929199 C422.48090244 705.78146061 428.3774563 715.64548862 434.30078125 725.49414062 C437.73611776 731.21115585 441.15483768 736.93761638 444.5546875 742.67578125 C444.94731781 743.33844498 445.33994812 744.0011087 445.74447632 744.68385315 C446.54893803 746.04177184 447.35337096 747.39970758 448.15777588 748.75765991 C448.55945984 749.43575714 448.9611438 750.11385437 449.375 750.8125 C449.77652283 751.49035553 450.17804565 752.16821106 450.59173584 752.86660767 C456.55154629 762.9235822 462.58720597 772.93113971 468.6762085 782.91030884 C474.41346917 792.31936965 480.01308713 801.80305224 485.56304932 811.32357788 C490.78285273 820.27359009 496.09983604 829.15772785 501.5 838 C507.63380175 848.04353659 513.63599795 858.15564354 519.5625 868.32275391 C524.78249662 877.27303304 530.09966525 886.15744821 535.5 895 C541.63380175 905.04353659 547.63599795 915.15564354 553.5625 925.32275391 C558.78249662 934.27303304 564.09966525 943.15744821 569.5 952 C575.63380175 962.04353659 581.63599795 972.15564354 587.5625 982.32275391 C592.78249662 991.27303304 598.09966525 1000.15744821 603.5 1009 C609.63380175 1019.04353659 615.63599795 1029.15564354 621.5625 1039.32275391 C626.78249662 1048.27303304 632.09966525 1057.15744821 637.5 1066 C643.63380175 1076.04353659 649.63599795 1086.15564354 655.5625 1096.32275391 C660.78249662 1105.27303304 666.09966525 1114.15744821 671.5 1123 C677.26707995 1132.44306335 682.92769052 1141.9407175 688.5 1151.5 C694.15695113 1161.20394481 699.90182888 1170.84753939 705.75 1180.4375 C712.31275573 1191.20114362 718.77017016 1202.02149146 725.1640625 1212.88623047 C728.88828023 1219.20254336 732.63182553 1225.50740858 736.375 1231.8125 C736.7837738 1232.50114136 737.19254761 1233.18978271 737.6137085 1233.89929199 C743.48090244 1243.78146061 749.3774563 1253.64548862 755.30078125 1263.49414062 C758.73611776 1269.21115585 762.15483768 1274.93761638 765.5546875 1280.67578125 C765.94731781 1281.33844498 766.33994812 1282.0011087 766.74447632 1282.68385315 C767.54893803 1284.04177184 768.35337096 1285.39970758 769.15777588 1286.75765991 C769.55945984 1287.43575714 769.9611438 1288.11385437 770.375 1288.8125 C770.77652283 1289.49035553 771.17804565 1290.16821106 771.59173584 1290.86660767 C777.55154629 1300.9235822 783.58720597 1310.93113971 789.6762085 1320.91030884 C795.41346917 1330.31936965 801.01308713 1339.80305224 806.56304932 1349.32357788 C811.78285273 1358.27359009 817.09983604 1367.15772785 822.5 1376 C828.63380175 1386.04353659 834.63599795 1396.15564354 840.5625 1406.32275391 C845.78249662 1415.27303304 851.09966525 1424.15744821 856.5 1433 C862.63380175 1443.04353659 868.63599795 1453.15564354 874.5625 1463.32275391 C879.78249662 1472.27303304 885.09966525 1481.15744821 890.5 1490 C896.63380175 1500.04353659 902.63599795 1510.15564354 908.5625 1520.32275391 C913.78249662 1529.27303304 919.09966525 1538.15744821 924.5 1547 C930.63380175 1557.04353659 936.63599795 1567.15564354 942.5625 1577.32275391 C947.78249662 1586.27303304 953.09966525 1595.15744821 958.5 1604 C964.63380175 1614.04353659 970.63599795 1624.15564354 976.5625 1634.32275391 C981.78249662 1643.27303304 987.09966525 1652.15744821 992.5 1661 C998.63380175 1671.04353659 1004.63599795 1681.15564354 1010.5625 1691.32275391 C1015.78249765 1700.27303481 1021.09972626 1709.15740925 1026.5 1718 C1033.17366352 1728.92814333 1039.69723629 1739.93726157 1046.15014648 1750.99707031 C1050.57805131 1758.5854159 1055.05666224 1766.13834182 1059.62890625 1773.640625 C1061 1776 1061 1776 1061 1777 C1014.53684336 1777.66438569 968.07419109 1778.17507966 921.6072174 1778.48089455 C916.116311 1778.51716323 910.62541394 1778.55469875 905.13452148 1778.59301758 C903.49487697 1778.60442808 903.49487697 1778.60442808 901.82210832 1778.6160691 C884.14295205 1778.74211913 866.46654203 1778.97068264 848.7890128 1779.23743109 C830.63771312 1779.50903547 812.48784714 1779.66978638 794.33459896 1779.72856635 C783.13919962 1779.7682839 771.95156107 1779.89346344 760.75855314 1780.12957754 C753.07325263 1780.28339662 745.39193648 1780.32909847 737.70521004 1780.29153994 C733.2725872 1780.27302287 728.85345895 1780.3004299 724.42326927 1780.45695877 C699.25408082 1781.30227792 699.25408082 1781.30227792 692.43911061 1775.72187349 C686.4258086 1769.52096883 682.80213669 1761.58644222 679.50826194 1753.70702169 C676.54130657 1746.63622457 672.53219758 1740.34529761 668.4375 1733.875 C667.00819807 1731.54948091 665.59212485 1729.21627697 664.17578125 1726.8828125 C663.82945582 1726.31366267 663.4831304 1725.74451283 663.12631026 1725.15811603 C657.3689656 1715.68921832 651.75681482 1706.13314383 646.12158203 1696.59130859 C642.27455933 1690.07814809 638.42080293 1683.56898407 634.5625 1677.0625 C633.96314636 1676.05157791 633.96314636 1676.05157791 633.35168457 1675.02023315 C627.40906594 1665.00191812 621.39037887 1655.03259752 615.32351685 1645.08914185 C609.58671926 1635.68090053 603.98809457 1626.19776376 598.43795776 1616.67843628 C593.19378184 1607.68831269 587.85729369 1598.76030359 582.4375 1589.875 C574.89534227 1577.50777259 567.48781358 1565.06415051 560.12158203 1552.59130859 C556.27455933 1546.07814809 552.42080293 1539.56898407 548.5625 1533.0625 C547.96314636 1532.05157791 547.96314636 1532.05157791 547.35168457 1531.02023315 C541.40906594 1521.00191812 535.39037887 1511.03259752 529.32351685 1501.08914185 C523.58569707 1491.67922416 517.98639262 1482.19422762 512.43493652 1472.67340088 C507.25257671 1463.79007689 501.98152629 1454.9668469 496.625 1446.1875 C490.56072567 1436.24589408 484.56318637 1426.26746619 478.625 1416.25 C478.23042603 1415.58451141 477.83585205 1414.91902283 477.42932129 1414.23336792 C474.21430242 1408.80988696 471.00294324 1403.38424153 467.79174805 1397.95849609 C464.98787002 1393.22131951 462.1824564 1388.48505682 459.375 1383.75 C458.98074829 1383.08491425 458.58649658 1382.41982849 458.18029785 1381.73458862 C452.29484825 1371.81084716 446.33194216 1361.93692848 440.32269287 1352.08776855 C434.58616736 1342.6799868 428.9878256 1333.19730244 423.43795776 1323.67843628 C418.19378184 1314.68831269 412.85729369 1305.76030359 407.4375 1296.875 C399.89534227 1284.50777259 392.48781358 1272.06415051 385.12158203 1259.59130859 C381.27455933 1253.07814809 377.42080293 1246.56898407 373.5625 1240.0625 C373.16293091 1239.38855194 372.76336182 1238.71460388 372.35168457 1238.02023315 C366.40906594 1228.00191812 360.39037887 1218.03259752 354.32351685 1208.08914185 C348.58569707 1198.67922416 342.98639262 1189.19422762 337.43493652 1179.67340088 C332.25257671 1170.79007689 326.98152629 1161.9668469 321.625 1153.1875 C315.56072567 1143.24589408 309.56318637 1133.26746619 303.625 1123.25 C303.23042603 1122.58451141 302.83585205 1121.91902283 302.42932129 1121.23336792 C299.21430242 1115.80988696 296.00294324 1110.38424153 292.79174805 1104.95849609 C289.98787002 1100.22131951 287.1824564 1095.48505682 284.375 1090.75 C283.78362244 1089.75237137 283.78362244 1089.75237137 283.18029785 1088.73458862 C277.29484825 1078.81084716 271.33194216 1068.93692848 265.32269287 1059.08776855 C259.58616736 1049.6799868 253.9878256 1040.19730244 248.43795776 1030.67843628 C243.19378184 1021.68831269 237.85729369 1012.76030359 232.4375 1003.875 C224.89534227 991.50777259 217.48781358 979.06415051 210.12158203 966.59130859 C206.27455933 960.07814809 202.42080293 953.56898407 198.5625 947.0625 C198.16293091 946.38855194 197.76336182 945.71460388 197.35168457 945.02023315 C191.40906594 935.00191812 185.39037887 925.03259752 179.32351685 915.08914185 C173.58569707 905.67922416 167.98639262 896.19422762 162.43493652 886.67340088 C156.91297771 877.20795445 151.28056383 867.81649212 145.57226562 858.46240234 C139.80962085 849.01688431 134.13484863 839.52226394 128.5 830 C122.55968925 819.96290768 116.5716568 809.9582 110.5 800 C104.01673213 789.36671155 97.63522658 778.6763327 91.29199219 767.95898438 C85.75294929 758.60315969 80.16003861 749.28309988 74.5 740 C68.01673213 729.36671155 61.63522658 718.6763327 55.29199219 707.95898438 C49.07742387 697.46215077 42.7803208 687.01930217 36.42944336 676.60449219 C30.48510105 666.84491367 24.65781341 657.01767002 18.83944702 647.18261719 C13.03007218 637.36715778 7.14763606 627.60864453 1 618 C-2.0559117 621.64913561 -4.5412238 625.40097612 -6.94921875 629.50390625 C-7.31880203 630.13054672 -7.68838531 630.75718719 -8.06916809 631.40281677 C-8.86381009 632.75074668 -9.65678527 634.09966036 -10.44824219 635.44946289 C-12.57557429 639.07674014 -14.71591322 642.69632998 -16.85546875 646.31640625 C-17.28999359 647.05218903 -17.72451843 647.7879718 -18.17221069 648.54605103 C-22.22453869 655.39918176 -26.35269255 662.20396717 -30.5 669 C-36.57285182 678.95746383 -42.55947488 688.9630578 -48.5 699 C-54.78046857 709.61130098 -61.122925 720.18099227 -67.54199219 730.70898438 C-73.26451936 740.09842559 -78.89939881 749.53738361 -84.5 759 C-90.78046857 769.61130098 -97.122925 780.18099227 -103.54199219 790.70898438 C-109.26451936 800.09842559 -114.89939881 809.53738361 -120.5 819 C-126.78046857 829.61130098 -133.122925 840.18099227 -139.54199219 850.70898438 C-145.26451936 860.09842559 -150.89939881 869.53738361 -156.5 879 C-162.78046857 889.61130098 -169.122925 900.18099227 -175.54199219 910.70898438 C-181.26452218 920.09843022 -186.89908871 929.53756359 -192.5 939 C-200.56357124 952.62025328 -208.73765826 966.16927816 -216.97900391 979.68261719 C-219.03604659 983.059169 -221.08714552 986.43922207 -223.13671875 989.8203125 C-223.78858154 990.89466553 -224.44044434 991.96901855 -225.11206055 993.07592773 C-226.34230418 995.10353088 -227.57167705 997.13166268 -228.80004883 999.16040039 C-229.34040771 1000.04977295 -229.8807666 1000.93914551 -230.4375 1001.85546875 C-230.91058594 1002.63559326 -231.38367188 1003.41571777 -231.87109375 1004.21948242 C-233 1006 -233 1006 -234 1007 C-235.36143269 1007.09731133 -236.72787793 1007.12555406 -238.09278393 1007.12584114 C-239.42481626 1007.12975276 -239.42481626 1007.12975276 -240.78375834 1007.13374341 C-241.77117323 1007.13151268 -242.75858813 1007.12928196 -243.77592468 1007.12698364 C-245.33768558 1007.12932363 -245.33768558 1007.12932363 -246.93099719 1007.13171089 C-250.45360524 1007.13572857 -253.97617086 1007.13252738 -257.4987793 1007.12939453 C-260.01632716 1007.130749 -262.53387483 1007.13252919 -265.05142212 1007.13470459 C-271.22369733 1007.13881557 -277.3959567 1007.13817575 -283.56823214 1007.13529195 C-288.63748243 1007.13302422 -293.70672935 1007.13273138 -298.77598 1007.13381577 C-299.86325117 1007.13404561 -299.86325117 1007.13404561 -300.97248742 1007.13428011 C-302.44669415 1007.13459995 -303.92090088 1007.13492416 -305.3951076 1007.1352527 C-319.2884254 1007.13811613 -333.18173665 1007.13481676 -347.07505337 1007.12945233 C-358.77668292 1007.12507079 -370.47830232 1007.12572905 -382.17993164 1007.13037109 C-454.4592315 1007.15830044 -526.72616736 1007.02494861 -599 1006 C-597.52306824 1002.20659411 -595.82370266 998.80349736 -593.75390625 995.29296875 C-592.76003906 993.60192017 -592.76003906 993.60192017 -591.74609375 991.87670898 C-591.01836619 990.64689156 -590.29049742 989.41715769 -589.5625 988.1875 C-588.80185467 986.89735159 -588.04144276 985.60706552 -587.28125 984.31665039 C-585.26686198 980.89988105 -583.2475753 977.48603287 -581.22686768 974.07299805 C-580.02108918 972.0356337 -578.81670612 969.99745144 -577.61279297 967.95898438 C-568.94140642 953.27896806 -560.20317692 938.64345073 -551.32324219 924.08859253 C-545.58613913 914.67991029 -539.98670895 905.19659796 -534.43695068 895.67642212 C-528.87466597 886.13918246 -523.19192778 876.6826005 -517.4375 867.26025391 C-512.0269719 858.39603852 -506.72981563 849.47192176 -501.5 840.5 C-495.58538748 830.35328653 -489.55888541 820.28345989 -483.4375 810.26025391 C-478.02697065 801.39603648 -472.72989754 792.47187569 -467.5 783.5 C-461.84304887 773.79605519 -456.09817112 764.15246061 -450.25 754.5625 C-443.68451046 743.79437262 -437.22403314 732.96966218 -430.82714844 722.10058594 C-427.14522385 715.85253112 -423.44943289 709.61270099 -419.75 703.375 C-419.34511353 702.69218964 -418.94022705 702.00937927 -418.52307129 701.30587769 C-412.52329369 691.1929841 -406.44881645 681.12826528 -400.32434082 671.09051514 C-394.58688687 661.68118405 -388.98707985 652.1972342 -383.43695068 642.67642212 C-377.87466597 633.13918246 -372.19192778 623.6826005 -366.4375 614.26025391 C-361.0269719 605.39603852 -355.72981563 596.47192176 -350.5 587.5 C-344.58538748 577.35328653 -338.55888541 567.28345989 -332.4375 557.26025391 C-327.02697065 548.39603648 -321.72989754 539.47187569 -316.5 530.5 C-310.84304887 520.79605519 -305.09817112 511.15246061 -299.25 501.5625 C-292.68451046 490.79437262 -286.22403314 479.96966218 -279.82714844 469.10058594 C-276.14522385 462.85253112 -272.44943289 456.61270099 -268.75 450.375 C-268.14267029 449.35078445 -268.14267029 449.35078445 -267.52307129 448.30587769 C-261.52329369 438.1929841 -255.44881645 428.12826528 -249.32434082 418.09051514 C-243.58688687 408.68118405 -237.98707985 399.1972342 -232.43695068 389.67642212 C-226.87466597 380.13918246 -221.19192778 370.6826005 -215.4375 361.26025391 C-210.0269719 352.39603852 -204.72981563 343.47192176 -199.5 334.5 C-193.58538748 324.35328653 -187.55888541 314.28345989 -181.4375 304.26025391 C-176.0269719 295.39603852 -170.72981563 286.47192176 -165.5 277.5 C-159.58538748 267.35328653 -153.55888541 257.28345989 -147.4375 247.26025391 C-142.02697065 238.39603648 -136.72989754 229.47187569 -131.5 220.5 C-125.84304887 210.79605519 -120.09817112 201.15246061 -114.25 191.5625 C-107.68451046 180.79437262 -101.22403314 169.96966218 -94.82714844 159.10058594 C-91.14522385 152.85253112 -87.44943289 146.61270099 -83.75 140.375 C-83.14267029 139.35078445 -83.14267029 139.35078445 -82.52307129 138.30587769 C-76.52329369 128.1929841 -70.44881645 118.12826528 -64.32434082 108.09051514 C-58.58688687 98.68118405 -52.98707985 89.1972342 -47.43695068 79.67642212 C-42.21714695 70.72640935 -36.90015728 61.8422773 -31.5 53 C-24.08809922 40.86361214 -16.87056186 28.62027319 -9.70703125 16.3359375 C-6.51474227 10.86414824 -3.27659651 5.42168428 0 0 Z " fill="#3D7DC0" transform="translate(1157,1057)"/>
<path d="M0 0 C1.4920076 -0.02505926 2.9847902 -0.01674751 4.47662085 0.01725185 C5.30354631 0.01221347 6.13047177 0.0071751 6.98245557 0.00198404 C9.77447849 -0.00764881 12.56435655 0.02580549 15.35617846 0.05876911 C17.37319054 0.06066999 19.39020658 0.05991397 21.40721703 0.05672359 C26.97355855 0.05552355 32.53913808 0.09178995 38.10529897 0.1336922 C44.11390436 0.17221594 50.12253684 0.17563897 56.13124675 0.18300235 C66.60337055 0.20044017 77.07526427 0.23910845 87.54725474 0.29213321 C103.67232609 0.37345851 119.79736763 0.41659174 135.92259832 0.45152229 C142.4560759 0.46578938 148.98955125 0.48105316 155.52302665 0.49627864 C156.61322656 0.49879628 156.61322656 0.49879628 157.72545072 0.50136477 C168.20594741 0.52567423 178.68641914 0.55518401 189.1668909 0.58851024 C231.57316613 0.72319616 273.9783521 0.7516265 316.38478869 0.6939925 C317.83571576 0.69204538 319.28664283 0.69010149 320.7375699 0.68816084 C327.27429591 0.67940417 333.81102176 0.67052007 340.34774758 0.66162267 C341.80026246 0.65964664 343.25277734 0.65767355 344.70529222 0.65570339 C348.33471609 0.65077897 351.96413988 0.64581209 355.59356357 0.64075914 C377.3503238 0.61064037 399.10704234 0.59739837 420.86382312 0.59908283 C421.58236678 0.59913317 422.30091045 0.59918351 423.04122817 0.59923538 C437.54361867 0.60033012 452.04600832 0.60369884 466.54839794 0.60880908 C474.51379957 0.61160698 482.47920126 0.61392193 490.44460315 0.6158675 C491.16269272 0.61605322 491.8807823 0.61623894 492.62063217 0.61643029 C516.50951069 0.62240653 540.39822705 0.59459355 564.28706438 0.55224695 C589.42995807 0.5078518 614.5726615 0.49592944 639.71558219 0.52552401 C643.24429252 0.52966413 646.77300315 0.53343577 650.30171412 0.53698337 C650.99492052 0.53769229 651.68812692 0.53840121 652.40233958 0.53913161 C663.44678744 0.54948221 674.49089953 0.52585552 685.53527835 0.48857481 C696.47857623 0.45234076 707.42145365 0.45274603 718.36476328 0.48909383 C724.26333829 0.50761263 730.16074559 0.50978824 736.05923098 0.46850765 C741.44556872 0.43114871 746.82979459 0.43952882 752.21605311 0.48488106 C754.16293626 0.49312614 756.10997916 0.48439738 758.05668911 0.45715116 C772.59963713 0.26704171 772.59963713 0.26704171 777.04308969 3.93128216 C778.85991828 6.47633914 780.15459471 8.87135475 781.38332385 11.73793781 C782.39991076 13.36626544 782.39991076 13.36626544 783.43703479 15.02748859 C783.99165393 15.98638996 784.54627307 16.94529132 785.11769885 17.93325031 C786.08739611 19.60012897 786.08739611 19.60012897 787.07668322 21.30068195 C787.57784655 22.16888065 787.57784655 22.16888065 788.0891344 23.05461872 C789.93286316 26.2475737 791.79250036 29.43127398 793.64894885 32.61684406 C794.0356676 33.28141117 794.42238635 33.94597827 794.82082385 34.63068378 C799.13650711 42.04341592 803.50401769 49.42515853 807.88332385 56.80043781 C808.28021411 57.46920948 808.67710437 58.13798114 809.0860216 58.82701862 C815.01219139 68.80795988 821.01458355 78.74033464 827.06008166 88.64934528 C832.79718472 98.05802752 838.39661489 107.54133984 843.94637316 117.06151569 C849.16617658 126.0115279 854.48315989 134.89566566 859.88332385 143.73793781 C866.0171256 153.7814744 872.0193218 163.89358135 877.94582385 174.06069171 C883.16582047 183.01097085 888.4829891 191.89538602 893.88332385 200.73793781 C900.0171256 210.7814744 906.0193218 220.89358135 911.94582385 231.06069171 C917.16582395 240.01097681 922.48321991 248.8952404 927.88332385 257.73793781 C936.16818796 271.30660698 944.22103954 285.0051737 952.22115535 298.74336231 C953.81766856 301.48338334 955.41571907 304.22250664 957.01366442 306.96169269 C957.644534 308.04313808 958.27540358 309.12458347 958.92539042 310.23879993 C959.40650845 311.06351543 959.88762648 311.88823093 960.38332385 312.73793781 C911.26366911 313.5282585 862.14428185 313.85048643 813.01901165 313.97810665 C810.72791873 313.98405981 808.436826 313.99007952 806.1457333 313.99611056 C790.08885794 314.03824994 774.03197577 314.07734835 757.97508907 314.11489493 C721.02779242 314.20130155 684.08054701 314.30415667 647.13332385 314.41762531 C645.77022745 314.42179393 645.77022745 314.42179393 644.37959376 314.42604676 C584.9010875 314.60808233 525.42351053 314.8846931 465.94582385 315.24575031 C465.01471192 315.25139917 464.08359999 315.25704804 463.12427256 315.26286808 C423.39362773 315.50416201 383.66309307 315.76212281 343.93259636 316.02657385 C338.00947681 316.06597635 332.08635545 316.10509673 326.16323298 316.14405811 C323.68175306 316.16039184 321.20027314 316.17672716 318.71879323 316.19306299 C317.0860695 316.20380793 315.45334572 316.21454572 313.82062189 316.22527626 C305.29845633 316.28131757 296.77629799 316.33814711 288.2541582 316.39799106 C279.81244364 316.45726073 271.37072118 316.51513603 262.92897815 316.5702132 C261.93364346 316.5767094 261.93364346 316.5767094 260.918201 316.58333683 C231.4064312 316.77427102 201.89559198 316.78240377 172.38332385 316.73793781 C172.08841555 317.49980899 171.79350726 318.26168018 171.48966235 319.04663837 C170.15447529 322.29463904 168.43180322 325.23915989 166.6294176 328.24184406 C166.25700442 328.86848453 165.88459124 329.495125 165.50089282 330.14075458 C164.27784633 332.19617821 163.04946563 334.2483547 161.82082385 336.30043781 C160.95865651 337.74628916 160.09667995 339.19225429 159.23488635 340.63832843 C153.48834773 350.2695576 147.6828227 359.86418558 141.84545153 369.44060504 C136.12149392 378.83212373 130.48520818 388.27315345 124.88332385 397.73793781 C118.60285527 408.34923879 112.26039884 418.91893008 105.84133166 429.44692218 C100.11880449 438.8363634 94.48392503 448.27532141 88.88332385 457.73793781 C82.60285527 468.34923879 76.26039884 478.91893008 69.84133166 489.44692218 C64.11880449 498.8363634 58.48392503 508.27532141 52.88332385 517.73793781 C46.60285527 528.34923879 40.26039884 538.91893008 33.84133166 549.44692218 C28.11880449 558.8363634 22.48392503 568.27532141 16.88332385 577.73793781 C10.27121967 588.90956088 3.58496914 600.03172048 -3.17624646 611.11367023 C-7.06863191 617.50143747 -10.91860171 623.91241677 -14.72605115 630.35121906 C-15.15555066 631.07719287 -15.58505018 631.80316669 -16.02756482 632.55113971 C-18.11875596 636.08779128 -20.20560801 639.62691533 -22.28659803 643.16957843 C-23.04758667 644.45933863 -23.80865069 645.74905435 -24.56980115 647.03871906 C-25.23141248 648.16447345 -25.89302381 649.29022785 -26.57468396 650.45009601 C-27.24854139 651.5350838 -27.92239881 652.6200716 -28.61667615 653.73793781 C-28.87656455 654.33944017 -29.13645296 654.94094252 -29.40421677 655.56067222 C-30.5751864 657.83760108 -31.58670435 659.15327874 -33.61667615 660.73793781 C-38.37750357 661.81242437 -43.14473519 661.65259516 -47.99883252 661.57971942 C-49.50045938 661.58277191 -51.00208262 661.58890091 -52.50368595 661.59784359 C-56.63163741 661.61351124 -60.75831982 661.58547835 -64.88610953 661.55039716 C-69.33664239 661.52019724 -73.78710238 661.53039542 -78.23770887 661.53571308 C-85.94912754 661.53938545 -93.66013196 661.51740374 -101.37144643 661.47804821 C-112.5206698 661.42118393 -123.66969265 661.4029307 -134.81904533 661.39413226 C-152.90754562 661.37880787 -170.99582508 661.33221254 -189.08420545 661.26601398 C-206.65645982 661.20177113 -224.22865424 661.15221713 -241.80100232 661.12245929 C-243.42545099 661.1197007 -243.42545099 661.1197007 -245.0827168 661.11688637 C-250.51558112 661.10775118 -255.94844586 661.0989052 -261.38131088 661.09020305 C-306.45991895 661.01762356 -351.53828616 660.89432063 -396.61667615 660.73793781 C-395.47536953 657.2323033 -394.4007034 654.04539971 -392.4643324 650.90200031 C-392.02774305 650.18463703 -391.59115369 649.46727375 -391.14133435 648.72817218 C-390.65882215 647.94764484 -390.17630994 647.1671175 -389.67917615 646.36293781 C-388.58955673 644.5745315 -387.50109697 642.78541834 -386.41355115 640.99575031 C-385.81091443 640.00607257 -385.20827771 639.01639484 -384.58737928 637.99672687 C-381.23388282 632.45132664 -377.94311757 626.86882571 -374.64392835 621.29100788 C-367.8191812 609.75640508 -360.92216715 598.26969567 -353.94129163 586.82900226 C-348.20375887 577.41948189 -342.60385795 567.93534691 -337.05362684 558.41435993 C-331.49134212 548.87712027 -325.80860393 539.42053831 -320.05417615 529.99819171 C-314.64364805 521.13397632 -309.34649178 512.20985957 -304.11667615 503.23793781 C-298.20206364 493.09122433 -292.17556156 483.0213977 -286.05417615 472.99819171 C-280.64364564 464.13397238 -275.34666038 455.20976411 -270.11667615 446.23793781 C-264.52055529 436.63911762 -258.84014991 427.09856333 -253.05417615 417.61293781 C-245.51201842 405.24571039 -238.10448973 392.80208832 -230.73825818 380.3292464 C-226.89123548 373.8160859 -223.03747908 367.30692188 -219.17917615 360.80043781 C-218.57982251 359.78951572 -218.57982251 359.78951572 -217.96836072 358.75817096 C-212.02574209 348.73985593 -206.00705502 338.77053533 -199.940193 328.82707965 C-194.20301113 319.41820813 -188.60348706 309.93471067 -183.05362684 300.41435993 C-177.49134212 290.87712027 -171.80860393 281.42053831 -166.05417615 271.99819171 C-160.64364805 263.13397632 -155.34649178 254.20985957 -150.11667615 245.23793781 C-144.20206364 235.09122433 -138.17556156 225.0213977 -132.05417615 214.99819171 C-126.64364681 206.13397429 -121.34657369 197.2098135 -116.11667615 188.23793781 C-110.45972502 178.533993 -104.71484727 168.89039842 -98.86667615 159.30043781 C-92.30118661 148.53231043 -85.84070929 137.70759999 -79.44382459 126.83852375 C-75.7619 120.59046893 -72.06610905 114.3506388 -68.36667615 108.11293781 C-67.75934644 107.08872226 -67.75934644 107.08872226 -67.13974744 106.04381549 C-61.13996984 95.9309219 -55.0654926 85.86620309 -48.94101697 75.82845294 C-43.56996349 67.02001266 -38.31348489 58.15016957 -33.11667615 49.23793781 C-27.26590374 39.20532135 -21.33265272 29.22738162 -15.30417615 19.30043781 C-14.94323865 18.7052132 -14.58230115 18.10998859 -14.21042615 17.49672687 C-9.84436152 10.30154867 -9.84436152 10.30154867 -7.61667615 6.73793781 C-7.0876124 5.70523222 -6.55854864 4.67252664 -6.01345265 3.60852695 C-3.61667615 0.73793781 -3.61667615 0.73793781 0 0 Z " fill="#3D6DB5" transform="translate(494.6166761517525,2173.262062191963)"/>
</svg>
