<?xml version="1.0" encoding="UTF-8"?>
<svg version="1.1" xmlns="http://www.w3.org/2000/svg" width="1328" height="413">
<path d="M0 0 C10.56 0 21.12 0 32 0 C32 77.88 32 155.76 32 236 C108.89 236 185.78 236 265 236 C265 246.56 265 257.12 265 268 C177.55 268 90.1 268 0 268 C0 179.56 0 91.12 0 0 Z " fill="#01C0FA" transform="translate(38,121)"/>
<path d="M0 0 C87.45 0 174.9 0 265 0 C265 88.11 265 176.22 265 267 C254.44 267 243.88 267 233 267 C233 189.45 233 111.9 233 32 C156.11 32 79.22 32 0 32 C0 21.44 0 10.88 0 0 Z " fill="#01C0FA" transform="translate(1024,33)"/>
<path d="M0 0 C1.407395 -0.01654042 2.81470665 -0.04380628 4.22167969 -0.08203125 C6.25686943 -0.13700408 8.29009407 -0.15870111 10.32592773 -0.17333984 C11.5438501 -0.19315918 12.76177246 -0.21297852 14.01660156 -0.23339844 C19.5187483 0.74249252 22.13762916 4.86564007 25.25170898 9.21337891 C25.76531982 9.92671387 26.27893066 10.64004883 26.80810547 11.375 C27.3437915 12.12990723 27.87947754 12.88481445 28.43139648 13.66259766 C29.28616577 14.8568335 29.28616577 14.8568335 30.15820312 16.07519531 C34.6614534 22.38839735 39.06517418 28.76733751 43.43920898 35.17041016 C46.63176553 39.83748546 49.8732475 44.46984722 53.11889648 49.10009766 C53.70791748 49.94040527 54.29693848 50.78071289 54.90380859 51.64648438 C56.10505351 53.35965774 57.30647044 55.07271051 58.50805664 56.78564453 C61.44364638 60.97182897 64.37477769 65.16113192 67.30639648 69.35009766 C67.88075439 70.1704248 68.4551123 70.99075195 69.046875 71.8359375 C72.01570013 76.07616625 74.98279302 80.31759151 77.94702148 84.56103516 C78.5515918 85.42599609 79.15616211 86.29095703 79.77905273 87.18212891 C80.90724015 88.79630475 82.03490623 90.41084519 83.16186523 92.02587891 C88.15834863 99.17243829 93.2369951 106.25293572 98.30639648 113.35009766 C98.63639648 76.39009766 98.96639648 39.43009766 99.30639648 1.35009766 C102.208652 -0.1010301 104.75550882 0.22024606 107.99389648 0.21728516 C108.98135864 0.21585007 108.98135864 0.21585007 109.98876953 0.21438599 C111.38077897 0.21370541 112.77279158 0.21555119 114.16479492 0.21972656 C116.29800531 0.22507661 118.43100516 0.21977753 120.56420898 0.21337891 C121.91577195 0.21403971 123.26733478 0.21532092 124.61889648 0.21728516 C126.4693457 0.21897705 126.4693457 0.21897705 128.35717773 0.22070312 C131.30639648 0.35009766 131.30639648 0.35009766 133.30639648 1.35009766 C133.30639648 59.10009766 133.30639648 116.85009766 133.30639648 176.35009766 C122.08639648 176.35009766 110.86639648 176.35009766 99.30639648 176.35009766 C93.60420635 168.74717748 88.00616048 161.16519274 82.61889648 153.35009766 C81.21942584 151.32907807 79.81968137 149.30824807 78.41967773 147.28759766 C77.38254639 145.7890625 77.38254639 145.7890625 76.32446289 144.26025391 C73.33310877 139.94656638 70.32060916 135.64782901 67.30639648 131.35009766 C62.29102115 124.19407447 57.29398736 117.02551147 52.30639648 109.85009766 C47.18939858 102.49032783 42.06798285 95.13371341 36.93139648 87.78759766 C36.40932617 87.03994141 35.88725586 86.29228516 35.34936523 85.52197266 C30.38475403 78.42790229 25.34003005 71.39718465 20.30639648 64.35009766 C19.97639648 87.45009766 19.64639648 110.55009766 19.30639648 134.35009766 C8.08639648 134.35009766 -3.13360352 134.35009766 -14.69360352 134.35009766 C-14.69360352 90.46009766 -14.69360352 46.57009766 -14.69360352 1.35009766 C-10.40565023 -0.79387899 -4.75827429 0.04097664 0 0 Z " fill="#01C0FA" transform="translate(307.693603515625,119.64990234375)"/>
<path d="M0 0 C1.407395 -0.01654042 2.81470665 -0.04380628 4.22167969 -0.08203125 C6.25686943 -0.13700408 8.29009407 -0.15870111 10.32592773 -0.17333984 C11.5438501 -0.19315918 12.76177246 -0.21297852 14.01660156 -0.23339844 C19.12533436 0.67271447 21.07849639 3.75172899 24.12060547 7.71166992 C24.95313843 8.92681274 24.95313843 8.92681274 25.80249023 10.16650391 C26.43622559 11.08520264 27.06996094 12.00390137 27.72290039 12.95043945 C28.3898291 13.92795166 29.05675781 14.90546387 29.74389648 15.91259766 C31.17718207 17.99353911 32.61078141 20.07426449 34.04467773 22.15478516 C34.76091309 23.19731445 35.47714844 24.23984375 36.21508789 25.31396484 C39.26299152 29.73886906 42.34522819 34.13933531 45.43139648 38.53759766 C46.57731668 40.17295346 47.72315013 41.80837005 48.86889648 43.44384766 C49.43350586 44.24951172 49.99811523 45.05517578 50.57983398 45.88525391 C52.34409668 48.40391853 54.10672874 50.92371693 55.86889648 53.44384766 C61.33269479 61.25685499 66.80342315 69.06462021 72.30639648 76.85009766 C76.77601541 83.17552768 81.23443656 89.508714 85.68139648 95.85009766 C86.25245117 96.66285156 86.82350586 97.47560547 87.41186523 98.31298828 C87.96229492 99.09867187 88.51272461 99.88435547 89.07983398 100.69384766 C89.79792236 101.71768555 89.79792236 101.71768555 90.53051758 102.76220703 C93.16251284 106.59766891 95.72610629 110.47966236 98.30639648 114.35009766 C98.63639648 77.06009766 98.96639648 39.77009766 99.30639648 1.35009766 C103.6131259 -0.80326705 109.37964653 0.16424287 114.16479492 0.16479492 C116.29813514 0.16260613 118.43096014 0.14443846 120.56420898 0.12548828 C121.91576971 0.12255472 123.2673329 0.12056967 124.61889648 0.11962891 C125.8525293 0.11552002 127.08616211 0.11141113 128.35717773 0.10717773 C131.30639648 0.35009766 131.30639648 0.35009766 133.30639648 2.35009766 C133.55528545 5.29520512 133.55528545 5.29520512 133.55363464 9.15162659 C133.55604906 9.85908443 133.55846347 10.56654227 133.56095105 11.29543823 C133.56660915 13.67776421 133.55790922 16.05982454 133.54931641 18.44213867 C133.55038876 20.14522372 133.55232674 21.84830842 133.55506897 23.5513916 C133.55992761 28.18552588 133.55224925 32.81956427 133.54211593 37.45368695 C133.53335326 42.29390691 133.53509252 47.1341237 133.53547668 51.97434998 C133.53453931 60.10278942 133.52584504 68.2311916 133.51220703 76.35961914 C133.49647546 85.77089137 133.49120907 95.18212278 133.49194258 104.59340721 C133.49255195 113.63081403 133.48745523 122.66820747 133.47915077 131.70561028 C133.47561102 135.55927573 133.47378654 139.41293646 133.47325706 143.26660347 C133.47225592 147.7997933 133.46617815 152.33294857 133.45609093 156.86612701 C133.45315871 158.53470333 133.45194201 160.20328362 133.45251846 161.87186241 C133.45300567 164.13979637 133.44738807 166.40763204 133.44010925 168.67555237 C133.43843341 169.94779443 133.43675756 171.22003649 133.43503094 172.53083134 C133.30639648 175.35009766 133.30639648 175.35009766 132.30639648 176.35009766 C104.79474615 179.65351506 104.79474615 179.65351506 95.84643555 175.09765625 C92.15273819 171.69957828 90.33941915 167.3326275 88.4309082 162.76660156 C86.3988331 158.39980188 83.45291975 154.66143131 80.61889648 150.78759766 C79.42364078 149.09108447 78.23230711 147.39180206 77.04467773 145.68994141 C76.43575684 144.82095215 75.82683594 143.95196289 75.19946289 143.05664062 C71.89200514 138.32792298 68.59961736 133.58873606 65.30639648 128.85009766 C59.75688302 120.86589888 54.19115418 112.89335881 48.61083984 104.93066406 C43.3559832 97.42885676 38.12487914 89.91061481 32.89819336 82.38916016 C32.27106445 81.48681641 31.64393555 80.58447266 30.99780273 79.65478516 C30.45325439 78.87087402 29.90870605 78.08696289 29.34765625 77.27929688 C26.34093052 72.96465804 23.3222037 68.65839368 20.30639648 64.35009766 C19.97639648 87.45009766 19.64639648 110.55009766 19.30639648 134.35009766 C8.08639648 134.35009766 -3.13360352 134.35009766 -14.69360352 134.35009766 C-14.69360352 90.46009766 -14.69360352 46.57009766 -14.69360352 1.35009766 C-10.40565023 -0.79387899 -4.75827429 0.04097664 0 0 Z " fill="#01C0FA" transform="translate(897.693603515625,119.64990234375)"/>
<path d="M0 0 C0.75986206 -0.00526703 1.51972412 -0.01053406 2.3026123 -0.01596069 C4.46235519 -0.02758449 6.62150424 -0.02441574 8.78125 -0.015625 C10.02970703 -0.01336914 11.27816406 -0.01111328 12.56445312 -0.00878906 C15.5 0.25 15.5 0.25 17.5 2.25 C17.74050903 5.14797974 17.74050903 5.14797974 17.72705078 8.90283203 C17.72734283 9.58587402 17.72763489 10.26891602 17.72793579 10.97265625 C17.72654039 13.23450341 17.71096967 15.49602276 17.6953125 17.7578125 C17.69158311 19.32436951 17.68873579 20.89092884 17.68673706 22.45748901 C17.67909476 26.58394797 17.65944124 30.71026651 17.6373291 34.83666992 C17.61328977 39.7859151 17.60409252 44.73520719 17.59242249 49.68449402 C17.57301709 57.20642706 17.53469889 64.72805189 17.5 72.25 C5.95 72.25 -5.6 72.25 -17.5 72.25 C-17.5 59.38 -17.5 46.51 -17.5 33.25 C-43.20908347 34.68322297 -43.20908347 34.68322297 -65.17578125 46.93359375 C-66.5 48.25 -66.5 48.25 -68.5 48.25 C-68.77070312 48.8275 -69.04140625 49.405 -69.3203125 50 C-70.50611863 52.26166998 -71.86935146 54.19046003 -73.375 56.25 C-82.21952759 69.35460567 -83.49552459 87.24416988 -80.8515625 102.55859375 C-78.32161365 114.73153441 -73.39899772 125.1266902 -63.16015625 132.5703125 C-50.89870937 140.31248895 -37.74575962 142.67954074 -23.41796875 142.76171875 C-22.23777664 142.77966995 -21.05758453 142.79762115 -19.84162903 142.81611633 C-16.12362088 142.86969527 -12.40573714 142.90394582 -8.6875 142.9375 C-6.14516517 142.97071937 -3.60284665 143.00521319 -1.06054688 143.04101562 C5.12619029 143.12539087 11.31294468 143.19395914 17.5 143.25 C17.52465392 147.78897705 17.54283789 152.32791543 17.55493164 156.86694336 C17.5599714 158.41219766 17.5668032 159.95744716 17.57543945 161.50268555 C17.58752076 163.71925029 17.59323173 165.93575218 17.59765625 168.15234375 C17.60539818 169.19454323 17.60539818 169.19454323 17.61329651 170.25779724 C17.61349277 171.9222933 17.56189129 173.58665499 17.5 175.25 C15.90008016 176.84991984 14.20658617 176.39332041 11.99047852 176.41113281 C11.02759415 176.42074036 10.06470978 176.4303479 9.07264709 176.44024658 C7.49174538 176.4466214 7.49174538 176.4466214 5.87890625 176.453125 C4.79101303 176.45882507 3.70311981 176.46452515 2.58226013 176.47039795 C0.26277646 176.47987693 -2.05672085 176.48639335 -4.3762207 176.49023438 C-7.86370013 176.49979763 -11.35055339 176.5307315 -14.83789062 176.5625 C-44.88549194 176.7061055 -74.82259348 171.45816451 -97.07861328 149.71972656 C-100.4660357 146.21710153 -103.09663427 142.47370474 -105.5 138.25 C-106.02980469 137.32703125 -106.55960938 136.4040625 -107.10546875 135.453125 C-119.32549633 112.64240685 -120.94303241 82.85683074 -113.87646484 58.04760742 C-107.64828851 37.6907427 -96.2304497 22.45287261 -77.390625 12.19335938 C-53.48788337 0.26668147 -26.11463258 0.09481811 0 0 Z " fill="#01C0FA" transform="translate(1178.5,119.75)"/>
<path d="M0 0 C10.07559847 10.87159169 12.87890625 22.49936121 12.87890625 37.02734375 C2.31890625 37.02734375 -8.24109375 37.02734375 -19.12109375 37.02734375 C-20.11109375 34.05734375 -21.10109375 31.08734375 -22.12109375 28.02734375 C-24.73787113 23.1547238 -26.97703644 21.0635331 -32.12109375 19.02734375 C-39.46695566 16.87659655 -46.3751317 17.4002878 -53.2109375 20.82421875 C-57.43772464 23.48648959 -59.85246463 27.26998454 -61.12109375 32.02734375 C-61.78289583 37.82312557 -61.63593264 43.1730867 -58.58984375 48.27734375 C-52.31927162 55.74866373 -42.38524818 55.80589598 -33.3762207 56.87548828 C-18.43348834 58.73243448 -5.41907613 64.810697 4.31640625 76.69921875 C13.28148372 90.05718418 15.61637377 104.6460626 13.4140625 120.33984375 C10.60888105 133.08765056 4.03077667 143.11789723 -6.53515625 150.77734375 C-17.71043022 157.8727558 -27.87042822 160.02734375 -41.12109375 160.02734375 C-41.12109375 149.46734375 -41.12109375 138.90734375 -41.12109375 128.02734375 C-37.49109375 127.03734375 -33.86109375 126.04734375 -30.12109375 125.02734375 C-24.82545298 121.5520795 -22.10243493 118.54226141 -20.42578125 112.39453125 C-19.71904987 106.90377206 -21.33246759 102.52010042 -23.87109375 97.71484375 C-29.97558139 90.4233724 -37.59024432 89.04985364 -46.68359375 88.21484375 C-62.04541702 86.50280638 -76.41967239 80.52546602 -86.40625 68.39453125 C-95.03481656 56.48357149 -97.5622805 42.08347932 -95.43359375 27.71484375 C-92.6720633 14.00307795 -85.67930821 2.09768611 -74.12109375 -5.97265625 C-67.13410157 -9.98506931 -60.1290883 -13.61536904 -52.12109375 -14.97265625 C-51.46496094 -15.09253906 -50.80882812 -15.21242188 -50.1328125 -15.3359375 C-31.8014568 -18.11747776 -13.57584628 -12.5336601 0 0 Z " fill="#01C0FA" transform="translate(669.12109375,135.97265625)"/>
<path d="M0 0 C3 1 3 1 4.09643555 2.92553711 C4.439729 3.7841333 4.78302246 4.64272949 5.13671875 5.52734375 C5.54027588 6.52419189 5.94383301 7.52104004 6.35961914 8.5480957 C7.01692017 10.22585083 7.01692017 10.22585083 7.6875 11.9375 C8.16243896 13.12625732 8.63737793 14.31501465 9.12670898 15.53979492 C14.10170836 28.03941691 18.84241749 40.63223438 23.60888672 53.21240234 C28.59396112 66.36206784 33.67422955 79.47198408 38.8125 92.5625 C40.31010922 96.37882256 41.8075662 100.19520475 43.3046875 104.01171875 C43.86973495 105.45211769 43.86973495 105.45211769 44.44619751 106.9216156 C49.13957007 118.89456913 53.78925645 130.88447041 58.4375 142.875 C59.05427109 144.46515427 59.05427109 144.46515427 59.6835022 146.08743286 C60.8507627 149.0971331 62.01733213 152.10710007 63.18359375 155.1171875 C63.69800522 156.44379143 63.69800522 156.44379143 64.22280884 157.79719543 C64.8565336 159.43414143 65.48834935 161.07182827 66.1178894 162.71038818 C66.70626209 164.23757203 67.30127116 165.76221552 67.90286255 167.28424072 C69.0888838 170.32987642 70 172.70084016 70 176 C58.45 176 46.9 176 35 176 C29.37561351 162.50147243 29.37561351 162.50147243 27.6315918 157.47900391 C27.23735519 156.34967438 26.84311859 155.22034485 26.43693542 154.05679321 C26.02848892 152.87531708 25.62004242 151.69384094 25.19921875 150.4765625 C24.75506559 149.2010767 24.31054271 147.92571959 23.86567688 146.65048218 C22.7034106 143.31627839 21.54519946 139.98068219 20.38818359 136.64465332 C18.32994309 130.7119723 16.26498175 124.78162753 14.19921875 118.8515625 C13.97786129 118.21567451 13.75650383 117.57978653 13.52843857 116.92462921 C9.46015518 105.24319143 5.27045468 93.60889991 1 82 C-1.37670095 84.37670095 -1.89939566 86.15865313 -2.98022461 89.3347168 C-3.3653421 90.45671478 -3.75045959 91.57871277 -4.14724731 92.73471069 C-4.56142914 93.96049835 -4.97561096 95.18628601 -5.40234375 96.44921875 C-5.84033754 97.73136003 -6.27889591 99.01330857 -6.71798706 100.29507446 C-7.64869973 103.01517237 -8.57594846 105.73641544 -9.50039673 108.45864868 C-11.64128675 114.76238359 -13.79915747 121.06031091 -15.95535088 127.35882378 C-16.66271082 129.42573789 -17.36937128 131.49289017 -18.07594299 133.56007385 C-22.92912264 147.75129354 -27.94119896 161.8806598 -33 176 C-44.55 176 -56.1 176 -68 176 C-69.19649685 172.41050945 -68.74017481 171.64152126 -67.39550781 168.20458984 C-67.01555161 167.21985687 -66.6355954 166.2351239 -66.24412537 165.22055054 C-65.60508018 163.60704208 -65.60508018 163.60704208 -64.953125 161.9609375 C-64.51521133 160.83362213 -64.07729767 159.70630676 -63.62611389 158.54483032 C-62.42668911 155.46211766 -61.21908695 152.38284618 -60.00790787 149.30474854 C-58.73558912 146.06523179 -57.47406075 142.82152037 -56.21166992 139.578125 C-54.14331039 134.26725584 -52.0694443 128.95857102 -49.99169922 123.65136719 C-46.12281447 113.76694492 -42.29279222 103.86752402 -38.46191406 93.96832275 C-36.54150486 89.00893125 -34.61618539 84.05144673 -32.69140625 79.09375 C-29.83721051 71.74096124 -26.98797616 64.38627597 -24.14396667 57.02954102 C-22.42674164 52.58770531 -20.7081933 48.14638207 -18.98959351 43.70507812 C-18.17890625 41.60897485 -17.36884227 39.51263039 -16.55947876 37.41601562 C-12.78606185 27.64181281 -8.99780441 17.8729085 -5.078125 8.15625 C-4.79459167 7.44005493 -4.51105835 6.72385986 -4.21893311 5.98596191 C-2.2317526 1.1158763 -2.2317526 1.1158763 0 0 Z " fill="#01C0FA" transform="translate(193,120)"/>
<path d="M0 0 C1.69838167 -0.01655058 3.39669393 -0.04382919 5.09472656 -0.08203125 C7.54683456 -0.13689893 9.99731139 -0.15868748 12.44995117 -0.17333984 C13.20532669 -0.19600922 13.96070221 -0.21867859 14.7389679 -0.24203491 C18.67392689 -0.22632605 20.4836983 0.14049808 23.5793457 2.64355469 C24.2933252 3.53671387 25.00730469 4.42987305 25.74291992 5.35009766 C26.26120361 5.99366211 26.7794873 6.63722656 27.31347656 7.30029297 C27.75554443 7.92000977 28.1976123 8.53972656 28.65307617 9.17822266 C29.16169189 9.88664307 29.67030762 10.59506348 30.19433594 11.32495117 C30.72599365 12.07574951 31.25765137 12.82654785 31.80541992 13.60009766 C32.65414673 14.78720337 32.65414673 14.78720337 33.52001953 15.99829102 C35.26659764 18.44495888 37.00584415 20.89667642 38.74291992 23.35009766 C39.5240918 24.451521 39.5240918 24.451521 40.32104492 25.57519531 C44.94152083 32.09357933 49.55114611 38.61868704 54.09057617 45.19384766 C54.6389917 45.98331787 55.18740723 46.77278809 55.75244141 47.58618164 C56.81092211 49.11047704 57.86403273 50.63851876 58.91113281 52.1706543 C60.13838325 53.93303694 61.43433625 55.64723389 62.74291992 57.35009766 C63.40291992 57.35009766 64.06291992 57.35009766 64.74291992 57.35009766 C66.07862304 55.83604433 66.07862304 55.83604433 67.38745117 53.84228516 C67.89985352 53.10236328 68.41225586 52.36244141 68.94018555 51.60009766 C69.47321289 50.81634766 70.00624023 50.03259766 70.55541992 49.22509766 C71.60106881 47.69992376 72.64921116 46.17645609 73.69995117 44.65478516 C74.16377197 43.97399902 74.62759277 43.29321289 75.10546875 42.59179688 C75.64582764 41.85203613 76.18618652 41.11227539 76.74291992 40.35009766 C77.43562988 39.28339844 78.12833984 38.21669922 78.84204102 37.11767578 C80.44945281 35.22540786 81.34658744 34.45169413 83.76951599 33.83059692 C86.26800318 33.65535329 88.69689766 33.67516797 91.19995117 33.76416016 C92.55439583 33.77689468 92.55439583 33.77689468 93.936203 33.78988647 C96.81050684 33.82338221 99.68196925 33.8986518 102.55541992 33.97509766 C104.50785326 34.00520232 106.46033073 34.03257725 108.4128418 34.05712891 C113.19062357 34.12316078 117.96629062 34.22665418 122.74291992 34.35009766 C121.56738629 37.49012948 120.33228847 40.19951904 118.37963867 42.92431641 C117.67774414 43.91141602 117.67774414 43.91141602 116.96166992 44.91845703 C116.20370117 45.96743164 116.20370117 45.96743164 115.43041992 47.03759766 C114.90061523 47.77945313 114.37081055 48.52130859 113.82495117 49.28564453 C112.13715248 51.64499693 110.44131401 53.99836306 108.74291992 56.35009766 C108.20103027 57.1011377 107.65914062 57.85217773 107.10083008 58.62597656 C104.94435956 61.61330911 102.78649797 64.59962196 100.62524414 67.58349609 C96.73379271 72.96047599 92.88200443 78.36427533 89.05541992 83.78759766 C88.55010742 84.50367188 88.04479492 85.21974609 87.52416992 85.95751953 C83.54641709 91.60636687 81.44430155 95.13861596 81.42407227 102.21801758 C81.41402664 103.01824844 81.40398102 103.81847931 81.39363098 104.64295959 C81.36273256 107.2888212 81.34574545 109.93458132 81.32885742 112.58056641 C81.31015112 114.4147479 81.29057811 116.24892074 81.27017212 118.08308411 C81.21878806 122.91139633 81.17919595 127.73973647 81.14202881 132.56817627 C81.10202846 137.49490298 81.05091803 142.42151291 81.00073242 147.34814453 C80.90389879 157.01538848 80.82054451 166.68268036 80.74291992 176.35009766 C69.52291992 176.35009766 58.30291992 176.35009766 46.74291992 176.35009766 C46.78070557 173.96557373 46.81849121 171.5810498 46.85742188 169.12426758 C46.97374409 161.16956663 47.01670399 153.21562007 47.02532673 145.26011181 C47.03272847 140.44480792 47.06341819 135.63219496 47.15087891 130.81762695 C48.5198363 102.79776011 48.5198363 102.79776011 36.08374023 78.76782227 C35.52447342 78.2064003 34.9652066 77.64497833 34.38899231 77.06654358 C31.64583104 74.2061056 29.45612542 70.95922587 27.18041992 67.72509766 C26.2837575 66.50798091 25.38438863 65.292849 24.48120117 64.08056641 C21.54944958 60.10861795 18.70527434 56.07729141 15.86791992 52.03759766 C11.71895347 46.13423032 7.5329868 40.25994872 3.30541992 34.41259766 C2.77416504 33.67517334 2.24291016 32.93774902 1.69555664 32.17797852 C-1.14911657 28.23580484 -4.02154502 24.31757867 -6.93286133 20.42431641 C-7.83016968 19.21279907 -7.83016968 19.21279907 -8.74560547 17.97680664 C-9.89067383 16.43179756 -11.04437614 14.89313727 -12.20800781 13.36206055 C-15.14607702 9.37877402 -16.96807517 6.45585095 -17.25708008 1.35009766 C-12.4923476 -1.03226858 -5.2964941 0.03784306 0 0 Z " fill="#01C0FA" transform="translate(729.257080078125,119.64990234375)"/>
<path d="M0 0 C11.22 0 22.44 0 34 0 C34 48.18 34 96.36 34 146 C40.6 146 47.2 146 54 146 C54 155.9 54 165.8 54 176 C29.58 176 5.16 176 -20 176 C-20 166.1 -20 156.2 -20 146 C-13.4 146 -6.8 146 0 146 C0 97.82 0 49.64 0 0 Z " fill="#01C0FA" transform="translate(492,120)"/>
</svg>
